<svg width="108" height="111" viewBox="0 0 108 111" fill="none" xmlns="http://www.w3.org/2000/svg">
<path d="M41.3668 33.2229C40.9809 33.608 40.6747 34.0654 40.4658 34.569C40.2569 35.0726 40.1494 35.6124 40.1494 36.1576C40.1494 36.7028 40.2569 37.2426 40.4658 37.7462C40.6747 38.2498 40.9809 38.7072 41.3668 39.0923L57.5182 55.2437L41.3668 71.3951C40.5884 72.1734 40.1512 73.2291 40.1512 74.3298C40.1512 75.4306 40.5884 76.4862 41.3668 77.2646C42.1451 78.0429 43.2008 78.4801 44.3015 78.4801C45.4022 78.4801 46.4579 78.0429 47.2362 77.2646L66.3432 58.1576C66.7291 57.7725 67.0352 57.3151 67.2441 56.8115C67.453 56.3079 67.5605 55.7681 67.5605 55.2229C67.5605 54.6777 67.453 54.1379 67.2441 53.6343C67.0352 53.1307 66.7291 52.6733 66.3432 52.2882L47.2362 33.1812C45.6544 31.5994 42.9902 31.5994 41.3668 33.2229Z" fill="white"/>
</svg>
