<svg width="108" height="111" viewBox="0 0 108 111" fill="none" xmlns="http://www.w3.org/2000/svg">
<path d="M66.3432 33.2229C66.7291 33.608 67.0352 34.0654 67.2441 34.569C67.453 35.0726 67.5605 35.6124 67.5605 36.1576C67.5605 36.7028 67.453 37.2426 67.2441 37.7462C67.0352 38.2498 66.7291 38.7072 66.3432 39.0923L50.1918 55.2437L66.3432 71.3951C67.1215 72.1734 67.5588 73.2291 67.5588 74.3298C67.5588 75.4306 67.1215 76.4862 66.3432 77.2646C65.5648 78.0429 64.5092 78.4801 63.4085 78.4801C62.3077 78.4801 61.2521 78.0429 60.4737 77.2646L41.3668 58.1576C40.9809 57.7725 40.6747 57.3151 40.4658 56.8115C40.257 56.3079 40.1494 55.7681 40.1494 55.2229C40.1494 54.6777 40.257 54.1379 40.4658 53.6343C40.6747 53.1307 40.9809 52.6733 41.3668 52.2882L60.4737 33.1812C62.0556 31.5994 64.7197 31.5994 66.3432 33.2229Z" fill="white"/>
</svg>
