<svg width="204" height="57" viewBox="0 0 204 57" fill="none" xmlns="http://www.w3.org/2000/svg">
<path d="M15.104 31.448C12.3307 31.448 9.89867 30.936 7.808 29.912C5.71733 28.8667 4.08533 27.4053 2.912 25.528C1.76 23.6507 1.184 21.464 1.184 18.968C1.184 16.4507 1.76 14.264 2.912 12.408C4.08533 10.552 5.73867 9.112 7.872 8.088C10.0053 7.064 12.5333 6.552 15.456 6.552C16.16 6.552 16.7467 6.584 17.216 6.648C17.6853 6.69066 18.1227 6.744 18.528 6.808C18.9333 6.872 19.392 6.936 19.904 7C20.4373 7.04267 21.0987 7.064 21.888 7.064L22.848 13.464H22.528C22.2933 12.2053 21.824 11.096 21.12 10.136C20.4373 9.15467 19.5733 8.38667 18.528 7.832C17.504 7.256 16.3627 6.968 15.104 6.968C13.8667 6.968 12.7253 7.26667 11.68 7.864C10.6347 8.46133 9.73867 9.29333 8.992 10.36C8.24533 11.448 7.65867 12.7493 7.232 14.264C6.82667 15.7573 6.624 17.4 6.624 19.192C6.624 21.56 6.98667 23.6293 7.712 25.4C8.43733 27.1493 9.46133 28.5147 10.784 29.496C12.1067 30.456 13.664 30.936 15.456 30.936C17.504 30.936 19.1893 30.328 20.512 29.112C21.856 27.8747 22.688 26.1573 23.008 23.96H23.328L22.4 30.872C21.3973 30.872 20.512 30.9147 19.744 31C18.976 31.1067 18.2293 31.2027 17.504 31.288C16.8 31.3947 16 31.448 15.104 31.448ZM33.2928 31.448C31.5434 31.448 30.0074 31.096 28.6848 30.392C27.3834 29.688 26.3701 28.696 25.6448 27.416C24.9194 26.136 24.5568 24.6213 24.5568 22.872C24.5568 21.1227 24.9194 19.608 25.6448 18.328C26.3701 17.048 27.3834 16.056 28.6848 15.352C30.0074 14.648 31.5434 14.296 33.2928 14.296C35.0421 14.296 36.5674 14.648 37.8688 15.352C39.1701 16.056 40.1834 17.048 40.9088 18.328C41.6341 19.608 41.9968 21.1227 41.9968 22.872C41.9968 24.6213 41.6341 26.136 40.9088 27.416C40.1834 28.696 39.1701 29.688 37.8688 30.392C36.5674 31.096 35.0421 31.448 33.2928 31.448ZM33.2608 31.032C34.0074 31.032 34.6474 30.6587 35.1808 29.912C35.7141 29.1653 36.1301 28.1733 36.4288 26.936C36.7274 25.6773 36.8768 24.312 36.8768 22.84C36.8768 21.24 36.7168 19.832 36.3968 18.616C36.0981 17.3787 35.6714 16.4187 35.1168 15.736C34.5834 15.032 33.9754 14.68 33.2928 14.68C32.5674 14.68 31.9274 15.0533 31.3728 15.8C30.8394 16.5467 30.4234 17.5387 30.1248 18.776C29.8261 20.0133 29.6768 21.368 29.6768 22.84C29.6768 24.4613 29.8368 25.8907 30.1568 27.128C30.4768 28.3653 30.9034 29.3253 31.4368 30.008C31.9914 30.6907 32.5994 31.032 33.2608 31.032ZM42.25 31V30.68C43.018 30.68 43.6367 30.456 44.106 30.008C44.5967 29.5387 44.842 28.9093 44.842 28.12V9.88C44.842 9.112 44.5967 8.49333 44.106 8.024C43.6367 7.55467 43.018 7.32 42.25 7.32V7H45.514C46.602 7 47.434 6.88266 48.01 6.648C48.5433 6.41333 48.9167 6.12533 49.13 5.784H49.45V28.12C49.45 28.9093 49.6847 29.5387 50.154 30.008C50.6447 30.456 51.274 30.68 52.042 30.68V31H42.25ZM60.8553 31.448C59.1059 31.448 57.5699 31.096 56.2473 30.392C54.9459 29.688 53.9326 28.696 53.2073 27.416C52.4819 26.136 52.1193 24.6213 52.1193 22.872C52.1193 21.1227 52.4819 19.608 53.2073 18.328C53.9326 17.048 54.9459 16.056 56.2473 15.352C57.5699 14.648 59.1059 14.296 60.8553 14.296C62.6046 14.296 64.1299 14.648 65.4313 15.352C66.7326 16.056 67.7459 17.048 68.4713 18.328C69.1966 19.608 69.5593 21.1227 69.5593 22.872C69.5593 24.6213 69.1966 26.136 68.4713 27.416C67.7459 28.696 66.7326 29.688 65.4313 30.392C64.1299 31.096 62.6046 31.448 60.8553 31.448ZM60.8233 31.032C61.5699 31.032 62.2099 30.6587 62.7433 29.912C63.2766 29.1653 63.6926 28.1733 63.9913 26.936C64.2899 25.6773 64.4393 24.312 64.4393 22.84C64.4393 21.24 64.2793 19.832 63.9593 18.616C63.6606 17.3787 63.2339 16.4187 62.6793 15.736C62.1459 15.032 61.5379 14.68 60.8553 14.68C60.1299 14.68 59.4899 15.0533 58.9353 15.8C58.4019 16.5467 57.9859 17.5387 57.6873 18.776C57.3886 20.0133 57.2393 21.368 57.2393 22.84C57.2393 24.4613 57.3993 25.8907 57.7193 27.128C58.0393 28.3653 58.4659 29.3253 58.9993 30.008C59.5539 30.6907 60.1619 31.032 60.8233 31.032ZM70.0045 31V30.68H70.0365C70.8045 30.68 71.4232 30.4453 71.8925 29.976C72.3618 29.5067 72.5965 28.888 72.5965 28.12V17.624C72.5965 16.8133 72.4258 16.184 72.0845 15.736C71.7645 15.288 71.0712 15.064 70.0045 15.064V14.744H73.1725C74.0472 14.744 74.7192 14.7013 75.1885 14.616C75.6792 14.5307 76.0418 14.424 76.2765 14.296C76.5112 14.1467 76.6818 13.9973 76.7885 13.848H77.1085L77.1405 18.008C77.6952 16.8987 78.5378 16.0027 79.6685 15.32C80.7992 14.6373 81.9938 14.296 83.2525 14.296C84.4685 14.296 85.4818 14.6373 86.2925 15.32C87.1032 16.0027 87.6258 16.92 87.8605 18.072C88.4578 16.92 89.3112 16.0027 90.4205 15.32C91.5512 14.6373 92.7672 14.296 94.0685 14.296C95.4978 14.296 96.6392 14.7653 97.4925 15.704C98.3672 16.6427 98.8045 17.88 98.8045 19.416V28.12C98.8045 28.888 99.0392 29.5067 99.5085 29.976C99.9778 30.4453 100.597 30.68 101.365 30.68H101.397V31H91.6365V30.68H91.6685C92.4365 30.68 93.0552 30.4453 93.5245 29.976C93.9938 29.5067 94.2285 28.888 94.2285 28.12V19.096C94.2285 18.0293 94.0152 17.176 93.5885 16.536C93.1618 15.896 92.6072 15.576 91.9245 15.576C91.2632 15.576 90.5698 15.8747 89.8445 16.472C89.1192 17.048 88.4898 17.8053 87.9565 18.744C87.9778 18.7867 87.9885 18.84 87.9885 18.904C87.9885 18.968 87.9885 19.0213 87.9885 19.064V28.12C87.9885 28.888 88.2232 29.5067 88.6925 29.976C89.1618 30.4453 89.7805 30.68 90.5485 30.68H90.5805V31H80.8205V30.68H80.8525C81.6205 30.68 82.2392 30.4453 82.7085 29.976C83.1778 29.5067 83.4125 28.888 83.4125 28.12V19.096C83.4125 18.0293 83.1992 17.176 82.7725 16.536C82.3672 15.896 81.8232 15.576 81.1405 15.576C80.4792 15.576 79.7858 15.864 79.0605 16.44C78.3565 16.9947 77.7378 17.752 77.2045 18.712V28.12C77.2045 28.888 77.4392 29.5067 77.9085 29.976C78.3778 30.4453 78.9965 30.68 79.7645 30.68H79.7965V31H70.0045ZM102.597 31.448V9.88C102.597 9.112 102.352 8.49333 101.861 8.024C101.392 7.55467 100.773 7.32 100.005 7.32V7H103.269C104.528 7 105.392 6.88266 105.861 6.648C106.33 6.41333 106.672 6.12533 106.885 5.784H107.205V17.432C107.696 16.472 108.378 15.704 109.253 15.128C110.149 14.552 111.13 14.264 112.197 14.264C113.456 14.264 114.576 14.6373 115.557 15.384C116.538 16.1307 117.306 17.144 117.861 18.424C118.437 19.704 118.725 21.1653 118.725 22.808C118.725 24.5147 118.405 26.0187 117.765 27.32C117.146 28.6213 116.272 29.6347 115.141 30.36C114.01 31.0853 112.688 31.448 111.173 31.448C108.634 31.448 106.928 30.392 106.053 28.28L102.917 31.448H102.597ZM110.245 30.904C111.376 30.904 112.229 30.2 112.805 28.792C113.381 27.384 113.669 25.3147 113.669 22.584C113.669 20.1947 113.445 18.424 112.997 17.272C112.549 16.12 111.845 15.544 110.885 15.544C110.032 15.544 109.274 15.8533 108.613 16.472C107.973 17.0907 107.504 17.784 107.205 18.552V26.584C107.29 27.9067 107.6 28.9627 108.133 29.752C108.666 30.52 109.37 30.904 110.245 30.904ZM119.193 31V30.68H119.225C119.993 30.68 120.611 30.4453 121.081 29.976C121.55 29.5067 121.785 28.888 121.785 28.12V17.624C121.785 16.8133 121.614 16.184 121.273 15.736C120.953 15.288 120.259 15.064 119.193 15.064V14.744H122.457C123.545 14.744 124.377 14.6267 124.953 14.392C125.486 14.1573 125.859 13.8693 126.073 13.528H126.393V28.12C126.393 28.888 126.627 29.5067 127.097 29.976C127.566 30.4453 128.185 30.68 128.953 30.68H128.985V31H119.193ZM124.057 11.512C123.289 11.512 122.649 11.2667 122.137 10.776C121.646 10.264 121.401 9.624 121.401 8.856C121.401 8.088 121.646 7.45867 122.137 6.968C122.649 6.456 123.289 6.2 124.057 6.2C124.803 6.2 125.422 6.456 125.913 6.968C126.425 7.48 126.681 8.10933 126.681 8.856C126.681 9.60267 126.425 10.232 125.913 10.744C125.422 11.256 124.803 11.512 124.057 11.512ZM133.781 31.448C132.479 31.448 131.434 31.096 130.645 30.392C129.855 29.688 129.461 28.76 129.461 27.608C129.461 27.1173 129.546 26.6587 129.717 26.232C129.887 25.784 130.207 25.3467 130.677 24.92C131.167 24.4933 131.839 24.056 132.693 23.608C133.546 23.1387 134.677 22.648 136.085 22.136L139.061 21.048V18.648C139.061 17.432 138.869 16.472 138.485 15.768C138.101 15.0427 137.567 14.68 136.885 14.68C136.074 14.7013 135.381 15.2347 134.805 16.28C134.25 17.3253 133.877 18.776 133.685 20.632L130.229 18.648C130.591 17.7733 131.146 17.0053 131.893 16.344C132.639 15.6827 133.493 15.1707 134.453 14.808C135.434 14.4453 136.458 14.264 137.525 14.264C139.338 14.264 140.81 14.776 141.941 15.8C143.093 16.8027 143.669 18.1787 143.669 19.928V27.64C143.669 28.8773 144.085 29.496 144.917 29.496C145.407 29.496 145.887 29.2293 146.357 28.696L146.613 28.92C146.058 29.6667 145.386 30.2747 144.597 30.744C143.807 31.2133 143.039 31.448 142.293 31.448C141.482 31.448 140.778 31.1707 140.181 30.616C139.605 30.0613 139.242 29.3253 139.093 28.408C138.047 29.4747 137.13 30.2533 136.341 30.744C135.573 31.2133 134.719 31.448 133.781 31.448ZM136.181 29.464C136.65 29.464 137.098 29.3467 137.525 29.112C137.973 28.8773 138.474 28.4933 139.029 27.96L139.061 21.464L137.781 21.944C136.693 22.3493 135.861 22.7653 135.285 23.192C134.709 23.5973 134.303 24.056 134.069 24.568C133.855 25.08 133.749 25.6667 133.749 26.328C133.749 27.2453 133.973 28.0027 134.421 28.6C134.89 29.176 135.477 29.464 136.181 29.464ZM145.973 31V30.68H146.005C146.773 30.68 147.392 30.4453 147.861 29.976C148.331 29.5067 148.565 28.888 148.565 28.12V17.624C148.565 16.8133 148.395 16.184 148.053 15.736C147.733 15.288 147.04 15.064 145.973 15.064V14.744H149.141C150.229 14.744 151.061 14.6267 151.637 14.392C152.171 14.1573 152.544 13.8693 152.757 13.528H153.077L153.109 18.008C153.664 16.8987 154.507 16.0027 155.637 15.32C156.768 14.6373 157.963 14.296 159.221 14.296C160.651 14.296 161.792 14.7653 162.645 15.704C163.52 16.6427 163.957 17.88 163.957 19.416V28.12C163.957 28.888 164.192 29.5067 164.661 29.976C165.131 30.4453 165.749 30.68 166.517 30.68H166.549V31H156.789V30.68H156.821C157.589 30.68 158.208 30.4453 158.677 29.976C159.147 29.5067 159.381 28.888 159.381 28.12V19.096C159.381 18.0293 159.168 17.176 158.741 16.536C158.336 15.896 157.792 15.576 157.109 15.576C156.448 15.576 155.755 15.864 155.029 16.44C154.325 16.9947 153.707 17.752 153.173 18.712V28.12C153.173 28.888 153.408 29.5067 153.877 29.976C154.347 30.4453 154.965 30.68 155.733 30.68H155.765V31H145.973ZM178.145 32.216L178.113 27.672C177.601 28.7813 176.833 29.6987 175.809 30.424C174.785 31.128 173.686 31.48 172.513 31.48C171.361 31.48 170.326 31.1173 169.409 30.392C168.491 29.6667 167.766 28.6747 167.233 27.416C166.699 26.136 166.433 24.696 166.433 23.096C166.433 21.304 166.763 19.7467 167.424 18.424C168.107 17.1013 169.046 16.088 170.241 15.384C171.435 14.6587 172.811 14.296 174.369 14.296C175.243 14.296 175.958 14.4347 176.513 14.712C177.067 14.968 177.569 15.416 178.017 16.056V9.88C178.017 9.112 177.771 8.49333 177.281 8.024C176.811 7.55467 176.193 7.32 175.425 7.32V7H178.689C179.755 7 180.566 6.89333 181.121 6.68C181.675 6.46667 182.07 6.168 182.305 5.784H182.625V28.12C182.625 28.888 182.859 29.5067 183.329 29.976C183.798 30.4453 184.427 30.68 185.217 30.68V31H181.953C181.014 31 180.267 31.096 179.713 31.288C179.179 31.48 178.763 31.7893 178.465 32.216H178.145ZM174.273 30.2C174.763 30.2 175.254 30.0507 175.745 29.752C176.257 29.432 176.715 29.016 177.121 28.504C177.526 27.992 177.825 27.448 178.017 26.872V19.064C177.91 17.784 177.59 16.76 177.057 15.992C176.545 15.224 175.873 14.84 175.041 14.84C173.931 14.84 173.067 15.544 172.449 16.952C171.851 18.36 171.553 20.44 171.553 23.192C171.553 27.864 172.459 30.2 174.273 30.2ZM194.043 31.448C192.293 31.448 190.757 31.096 189.435 30.392C188.133 29.688 187.12 28.696 186.395 27.416C185.669 26.136 185.307 24.6213 185.307 22.872C185.307 21.1227 185.669 19.608 186.395 18.328C187.12 17.048 188.133 16.056 189.435 15.352C190.757 14.648 192.293 14.296 194.043 14.296C195.792 14.296 197.317 14.648 198.619 15.352C199.92 16.056 200.933 17.048 201.659 18.328C202.384 19.608 202.747 21.1227 202.747 22.872C202.747 24.6213 202.384 26.136 201.659 27.416C200.933 28.696 199.92 29.688 198.619 30.392C197.317 31.096 195.792 31.448 194.043 31.448ZM194.011 31.032C194.757 31.032 195.397 30.6587 195.931 29.912C196.464 29.1653 196.88 28.1733 197.179 26.936C197.477 25.6773 197.627 24.312 197.627 22.84C197.627 21.24 197.467 19.832 197.147 18.616C196.848 17.3787 196.421 16.4187 195.867 15.736C195.333 15.032 194.725 14.68 194.043 14.68C193.317 14.68 192.677 15.0533 192.123 15.8C191.589 16.5467 191.173 17.5387 190.875 18.776C190.576 20.0133 190.427 21.368 190.427 22.84C190.427 24.4613 190.587 25.8907 190.907 27.128C191.227 28.3653 191.653 29.3253 192.187 30.008C192.741 30.6907 193.349 31.032 194.011 31.032Z" fill="black"/>
<path d="M19 54V53.84C19.3947 53.84 19.7093 53.7333 19.944 53.52C20.1787 53.3067 20.296 53.0187 20.296 52.656V43.36C20.296 42.9973 20.1733 42.7093 19.928 42.496C19.6933 42.272 19.3893 42.16 19.016 42.16V42H24.168C25.672 42 26.984 42.2293 28.104 42.688C29.224 43.136 30.0933 43.808 30.712 44.704C31.3307 45.6 31.64 46.704 31.64 48.016C31.64 49.328 31.3253 50.4267 30.696 51.312C30.0773 52.1973 29.208 52.8693 28.088 53.328C26.968 53.776 25.6613 54 24.168 54H19ZM23.88 53.792H24.168C25.128 53.792 25.96 53.5733 26.664 53.136C27.3787 52.6987 27.9333 52.048 28.328 51.184C28.7227 50.32 28.92 49.2533 28.92 47.984C28.92 46.7147 28.7227 45.6533 28.328 44.8C27.9333 43.9467 27.3787 43.3067 26.664 42.88C25.96 42.4427 25.128 42.224 24.168 42.224H22.76V52.656C22.76 52.9973 22.84 53.2747 23 53.488C23.1707 53.6907 23.464 53.792 23.88 53.792ZM32.0495 54V53.84H32.0655C32.4495 53.84 32.7588 53.7227 32.9935 53.488C33.2282 53.2533 33.3455 52.944 33.3455 52.56V47.312C33.3455 46.9067 33.2602 46.592 33.0895 46.368C32.9295 46.144 32.5828 46.032 32.0495 46.032V45.872H33.6815C34.2255 45.872 34.6415 45.8133 34.9295 45.696C35.1962 45.5787 35.3828 45.4347 35.4895 45.264H35.6495V52.56C35.6495 52.944 35.7668 53.2533 36.0015 53.488C36.2362 53.7227 36.5455 53.84 36.9295 53.84H36.9455V54H32.0495ZM34.4815 44.256C34.0975 44.256 33.7775 44.1333 33.5215 43.888C33.2762 43.632 33.1535 43.312 33.1535 42.928C33.1535 42.544 33.2762 42.2293 33.5215 41.984C33.7775 41.728 34.0975 41.6 34.4815 41.6C34.8548 41.6 35.1642 41.728 35.4095 41.984C35.6655 42.24 35.7935 42.5547 35.7935 42.928C35.7935 43.3013 35.6655 43.616 35.4095 43.872C35.1642 44.128 34.8548 44.256 34.4815 44.256ZM39.9515 54.224C39.6742 54.224 39.4662 54.2133 39.3275 54.192C39.1888 54.1707 39.0555 54.144 38.9275 54.112C38.8102 54.08 38.6502 54.0533 38.4475 54.032C38.2448 54.0107 37.9355 54 37.5195 54L37.1355 50.992H37.3435C37.5142 51.9947 37.8342 52.752 38.3035 53.264C38.7728 53.7653 39.2848 54.016 39.8395 54.016C40.3835 54.016 40.7942 53.904 41.0715 53.68C41.3595 53.456 41.5035 53.152 41.5035 52.768C41.5035 52.5227 41.4395 52.3093 41.3115 52.128C41.1942 51.936 40.9862 51.744 40.6875 51.552C40.3888 51.3493 39.9835 51.1093 39.4715 50.832L39.0075 50.576C38.4208 50.2453 37.9835 49.8613 37.6955 49.424C37.4182 48.976 37.2795 48.496 37.2795 47.984C37.2795 47.2587 37.5408 46.688 38.0635 46.272C38.5968 45.856 39.3062 45.648 40.1915 45.648C40.4155 45.648 40.5968 45.6587 40.7355 45.68C40.8742 45.7013 41.0075 45.728 41.1355 45.76C41.2635 45.792 41.4235 45.8187 41.6155 45.84C41.8075 45.8613 42.0635 45.872 42.3835 45.872L42.6075 48.448H42.4155C42.3515 47.9467 42.2075 47.504 41.9835 47.12C41.7702 46.7253 41.5142 46.4213 41.2155 46.208C40.9168 45.984 40.6128 45.872 40.3035 45.872C39.8982 45.872 39.5728 45.9787 39.3275 46.192C39.0928 46.4053 38.9755 46.704 38.9755 47.088C38.9755 47.376 39.0662 47.6427 39.2475 47.888C39.4395 48.1227 39.8022 48.3787 40.3355 48.656L40.8155 48.896C41.5622 49.28 42.1062 49.68 42.4475 50.096C42.7888 50.512 42.9595 51.0453 42.9595 51.696C42.9595 53.36 41.9568 54.2027 39.9515 54.224ZM43.3438 54V53.84C43.7278 53.84 44.0371 53.7227 44.2718 53.488C44.5171 53.2533 44.6398 52.944 44.6398 52.56V46.16H43.2797L43.4398 45.872H44.6398V45.504C44.6398 44.6933 44.7731 43.9947 45.0398 43.408C45.3171 42.8107 45.7064 42.3467 46.2078 42.016C46.7091 41.6853 47.3011 41.52 47.9838 41.52C48.4531 41.52 48.8958 41.5947 49.3118 41.744C49.7384 41.8827 50.1011 42.08 50.3998 42.336C50.7091 42.5813 50.9278 42.8693 51.0558 43.2L49.1358 44.288C49.1251 43.904 49.0931 43.5573 49.0398 43.248C48.9971 42.9387 48.9224 42.6667 48.8158 42.432C48.6024 41.9627 48.3304 41.728 47.9998 41.728C47.6584 41.728 47.4024 41.9893 47.2318 42.512C47.0398 43.0347 46.9438 43.7493 46.9438 44.656V45.872H49.1038L48.9438 46.16H46.9438V52.56C46.9438 52.944 47.0878 53.2533 47.3758 53.488C47.6744 53.7227 48.0638 53.84 48.5438 53.84H48.5598V54H43.3438ZM48.4241 54V53.84H48.4401C48.8241 53.84 49.1335 53.7227 49.3681 53.488C49.6028 53.2533 49.7201 52.944 49.7201 52.56V47.312C49.7201 46.9067 49.6348 46.592 49.4641 46.368C49.3041 46.144 48.9575 46.032 48.4241 46.032V45.872H50.0081C50.5735 45.872 51.0001 45.8187 51.2881 45.712C51.5761 45.5947 51.7788 45.4453 51.8961 45.264H51.9761L51.9921 47.888C52.1308 47.568 52.3068 47.232 52.5201 46.88C52.7441 46.528 53.0215 46.2347 53.3521 46C53.6935 45.7547 54.0988 45.632 54.5681 45.632C54.7281 45.632 54.8988 45.648 55.0801 45.68C55.2615 45.712 55.4535 45.7707 55.6561 45.856L55.0321 47.728C54.6481 47.5147 54.3121 47.3653 54.0241 47.28C53.7468 47.1947 53.5015 47.152 53.2881 47.152C52.9255 47.152 52.6535 47.264 52.4721 47.488C52.3015 47.712 52.1521 47.9787 52.0241 48.288V52.56C52.0241 52.944 52.1415 53.2533 52.3761 53.488C52.6108 53.7227 52.9201 53.84 53.3041 53.84H53.3201V54H48.4241ZM62.1061 54.448L62.0901 52.384C61.8128 52.928 61.3915 53.3707 60.8261 53.712C60.2608 54.0533 59.6635 54.224 59.0341 54.224C58.3195 54.224 57.7435 53.9893 57.3061 53.52C56.8795 53.0507 56.6661 52.432 56.6661 51.664V47.312C56.6661 46.9067 56.5861 46.592 56.4261 46.368C56.2661 46.144 55.9141 46.032 55.3701 46.032V45.872H56.9861C57.5301 45.872 57.9461 45.8133 58.2341 45.696C58.5008 45.5787 58.6875 45.4347 58.7941 45.264H58.9541V51.824C58.9541 52.3573 59.0608 52.784 59.2741 53.104C59.4875 53.424 59.7648 53.584 60.1061 53.584C60.4368 53.584 60.7781 53.4453 61.1301 53.168C61.4821 52.88 61.7915 52.496 62.0581 52.016V47.312C62.0581 46.928 61.9621 46.6187 61.7701 46.384C61.5781 46.1493 61.2475 46.032 60.7781 46.032V45.872H62.3941C62.9381 45.872 63.3541 45.8133 63.6421 45.696C63.9195 45.5787 64.1115 45.4347 64.2181 45.264H64.3781L64.3621 52.56C64.3621 52.944 64.4795 53.2587 64.7141 53.504C64.9488 53.7387 65.2581 53.856 65.6421 53.856V54H64.0581C63.7808 54 63.5355 54.0053 63.3221 54.016C63.1088 54.0373 62.9328 54.0587 62.7941 54.08C62.5061 54.144 62.3035 54.2667 62.1861 54.448H62.1061ZM68.4408 54.224C67.8861 54.224 67.4328 54.048 67.0807 53.696C66.7288 53.344 66.5528 52.8853 66.5528 52.32V46.16H65.1928V45.952C65.9288 45.8987 66.5848 45.664 67.1608 45.248C67.7474 44.832 68.2274 44.272 68.6008 43.568H68.8568V45.872H70.9848L70.8248 46.16H68.8568V51.968C68.8568 52.8213 69.1448 53.248 69.7208 53.248C69.9128 53.248 70.1314 53.1893 70.3768 53.072C70.6328 52.9547 70.8728 52.8 71.0968 52.608V52.768C70.7448 53.216 70.3288 53.5733 69.8488 53.84C69.3688 54.096 68.8994 54.224 68.4408 54.224ZM73.5623 54.224C72.9116 54.224 72.3889 54.048 71.9943 53.696C71.5996 53.344 71.4023 52.88 71.4023 52.304C71.4023 52.0587 71.4449 51.8293 71.5303 51.616C71.6156 51.392 71.7756 51.1733 72.0103 50.96C72.2556 50.7467 72.5916 50.528 73.0182 50.304C73.4449 50.0693 74.0103 49.824 74.7143 49.568L76.2023 49.024V47.824C76.2023 47.216 76.1063 46.736 75.9143 46.384C75.7223 46.0213 75.4556 45.84 75.1143 45.84C74.7089 45.8507 74.3623 46.1173 74.0743 46.64C73.7969 47.1627 73.6103 47.888 73.5143 48.816L71.7863 47.824C71.9676 47.3867 72.2449 47.0027 72.6183 46.672C72.9916 46.3413 73.4183 46.0853 73.8983 45.904C74.3889 45.7227 74.9009 45.632 75.4343 45.632C76.3409 45.632 77.0769 45.888 77.6423 46.4C78.2183 46.9013 78.5063 47.5893 78.5063 48.464V52.32C78.5063 52.9387 78.7143 53.248 79.1302 53.248C79.3756 53.248 79.6156 53.1147 79.8503 52.848L79.9783 52.96C79.7009 53.3333 79.3649 53.6373 78.9703 53.872C78.5756 54.1067 78.1916 54.224 77.8183 54.224C77.4129 54.224 77.0609 54.0853 76.7623 53.808C76.4743 53.5307 76.2929 53.1627 76.2183 52.704C75.6956 53.2373 75.2369 53.6267 74.8423 53.872C74.4583 54.1067 74.0316 54.224 73.5623 54.224ZM74.7623 53.232C74.9969 53.232 75.2209 53.1733 75.4343 53.056C75.6583 52.9387 75.9089 52.7467 76.1863 52.48L76.2023 49.232L75.5623 49.472C75.0183 49.6747 74.6023 49.8827 74.3143 50.096C74.0263 50.2987 73.8236 50.528 73.7063 50.784C73.5996 51.04 73.5463 51.3333 73.5463 51.664C73.5463 52.1227 73.6583 52.5013 73.8823 52.8C74.1169 53.088 74.4103 53.232 74.7623 53.232ZM79.6585 54V53.84H79.6745C80.0585 53.84 80.3678 53.7227 80.6025 53.488C80.8372 53.2533 80.9545 52.944 80.9545 52.56V47.312C80.9545 46.9067 80.8692 46.592 80.6985 46.368C80.5385 46.144 80.1918 46.032 79.6585 46.032V45.872H81.2425C81.7865 45.872 82.2025 45.8133 82.4905 45.696C82.7572 45.5787 82.9438 45.4347 83.0505 45.264H83.2105L83.2265 47.504C83.5038 46.9493 83.9252 46.5013 84.4905 46.16C85.0558 45.8187 85.6532 45.648 86.2825 45.648C86.9972 45.648 87.5678 45.8827 87.9945 46.352C88.4318 46.8213 88.6505 47.44 88.6505 48.208V52.56C88.6505 52.944 88.7678 53.2533 89.0025 53.488C89.2372 53.7227 89.5465 53.84 89.9305 53.84H89.9465V54H85.0665V53.84H85.0825C85.4665 53.84 85.7758 53.7227 86.0105 53.488C86.2452 53.2533 86.3625 52.944 86.3625 52.56V48.048C86.3625 47.5147 86.2558 47.088 86.0425 46.768C85.8398 46.448 85.5678 46.288 85.2265 46.288C84.8958 46.288 84.5492 46.432 84.1865 46.72C83.8345 46.9973 83.5252 47.376 83.2585 47.856V52.56C83.2585 52.944 83.3758 53.2533 83.6105 53.488C83.8452 53.7227 84.1545 53.84 84.5385 53.84H84.5545V54H79.6585ZM95.7441 54.608L95.7281 52.336C95.4721 52.8907 95.0881 53.3493 94.5761 53.712C94.0641 54.064 93.5148 54.24 92.9281 54.24C92.3521 54.24 91.8348 54.0587 91.3761 53.696C90.9175 53.3333 90.5548 52.8373 90.2881 52.208C90.0215 51.568 89.8881 50.848 89.8881 50.048C89.8881 49.152 90.0535 48.3733 90.3841 47.712C90.7255 47.0507 91.1948 46.544 91.7921 46.192C92.3895 45.8293 93.0775 45.648 93.8561 45.648C94.2935 45.648 94.6508 45.7173 94.9281 45.856C95.2055 45.984 95.4561 46.208 95.6801 46.528V43.44C95.6801 43.056 95.5575 42.7467 95.3121 42.512C95.0775 42.2773 94.7681 42.16 94.3841 42.16V42H96.0161C96.5495 42 96.9548 41.9467 97.2321 41.84C97.5095 41.7333 97.7068 41.584 97.8241 41.392H97.9841V52.56C97.9841 52.944 98.1015 53.2533 98.3361 53.488C98.5708 53.7227 98.8855 53.84 99.2801 53.84V54H97.6481C97.1788 54 96.8055 54.048 96.5281 54.144C96.2615 54.24 96.0535 54.3947 95.9041 54.608H95.7441ZM93.8081 53.6C94.0535 53.6 94.2988 53.5253 94.5441 53.376C94.8001 53.216 95.0295 53.008 95.2321 52.752C95.4348 52.496 95.5841 52.224 95.6801 51.936V48.032C95.6268 47.392 95.4668 46.88 95.2001 46.496C94.9441 46.112 94.6081 45.92 94.1921 45.92C93.6375 45.92 93.2055 46.272 92.8961 46.976C92.5975 47.68 92.4481 48.72 92.4481 50.096C92.4481 52.432 92.9015 53.6 93.8081 53.6ZM103.693 54.224C102.819 54.224 102.051 54.048 101.389 53.696C100.739 53.344 100.232 52.848 99.8693 52.208C99.5066 51.568 99.3253 50.8107 99.3253 49.936C99.3253 49.0613 99.5066 48.304 99.8693 47.664C100.232 47.024 100.739 46.528 101.389 46.176C102.051 45.824 102.819 45.648 103.693 45.648C104.568 45.648 105.331 45.824 105.981 46.176C106.632 46.528 107.139 47.024 107.501 47.664C107.864 48.304 108.045 49.0613 108.045 49.936C108.045 50.8107 107.864 51.568 107.501 52.208C107.139 52.848 106.632 53.344 105.981 53.696C105.331 54.048 104.568 54.224 103.693 54.224ZM103.677 54.016C104.051 54.016 104.371 53.8293 104.637 53.456C104.904 53.0827 105.112 52.5867 105.261 51.968C105.411 51.3387 105.485 50.656 105.485 49.92C105.485 49.12 105.405 48.416 105.245 47.808C105.096 47.1893 104.883 46.7093 104.605 46.368C104.339 46.016 104.035 45.84 103.693 45.84C103.331 45.84 103.011 46.0267 102.733 46.4C102.467 46.7733 102.259 47.2693 102.109 47.888C101.96 48.5067 101.885 49.184 101.885 49.92C101.885 50.7307 101.965 51.4453 102.125 52.064C102.285 52.6827 102.499 53.1627 102.765 53.504C103.043 53.8453 103.347 54.016 103.677 54.016ZM119.255 54.224C117.868 54.224 116.652 53.968 115.607 53.456C114.562 52.9333 113.746 52.2027 113.159 51.264C112.583 50.3253 112.295 49.232 112.295 47.984C112.295 46.7253 112.583 45.632 113.159 44.704C113.746 43.776 114.572 43.056 115.639 42.544C116.706 42.032 117.97 41.776 119.431 41.776C119.783 41.776 120.076 41.792 120.311 41.824C120.546 41.8453 120.764 41.872 120.967 41.904C121.17 41.936 121.399 41.968 121.655 42C121.922 42.0213 122.252 42.032 122.647 42.032L123.127 45.232H122.967C122.85 44.6027 122.615 44.048 122.263 43.568C121.922 43.0773 121.49 42.6933 120.967 42.416C120.455 42.128 119.884 41.984 119.255 41.984C118.636 41.984 118.066 42.1333 117.543 42.432C117.02 42.7307 116.572 43.1467 116.199 43.68C115.826 44.224 115.532 44.8747 115.319 45.632C115.116 46.3787 115.015 47.2 115.015 48.096C115.015 49.28 115.196 50.3147 115.559 51.2C115.922 52.0747 116.434 52.7573 117.095 53.248C117.756 53.728 118.535 53.968 119.431 53.968C120.455 53.968 121.298 53.664 121.959 53.056C122.631 52.4373 123.047 51.5787 123.207 50.48H123.367L122.903 53.936C122.402 53.936 121.959 53.9573 121.575 54C121.191 54.0533 120.818 54.1013 120.455 54.144C120.103 54.1973 119.703 54.224 119.255 54.224ZM128.35 54.224C127.475 54.224 126.707 54.048 126.046 53.696C125.395 53.344 124.888 52.848 124.526 52.208C124.163 51.568 123.982 50.8107 123.982 49.936C123.982 49.0613 124.163 48.304 124.526 47.664C124.888 47.024 125.395 46.528 126.046 46.176C126.707 45.824 127.475 45.648 128.35 45.648C129.224 45.648 129.987 45.824 130.638 46.176C131.288 46.528 131.795 47.024 132.158 47.664C132.52 48.304 132.702 49.0613 132.702 49.936C132.702 50.8107 132.52 51.568 132.158 52.208C131.795 52.848 131.288 53.344 130.638 53.696C129.987 54.048 129.224 54.224 128.35 54.224ZM128.334 54.016C128.707 54.016 129.027 53.8293 129.294 53.456C129.56 53.0827 129.768 52.5867 129.918 51.968C130.067 51.3387 130.142 50.656 130.142 49.92C130.142 49.12 130.062 48.416 129.902 47.808C129.752 47.1893 129.539 46.7093 129.262 46.368C128.995 46.016 128.691 45.84 128.35 45.84C127.987 45.84 127.667 46.0267 127.39 46.4C127.123 46.7733 126.915 47.2693 126.766 47.888C126.616 48.5067 126.542 49.184 126.542 49.92C126.542 50.7307 126.622 51.4453 126.782 52.064C126.942 52.6827 127.155 53.1627 127.422 53.504C127.699 53.8453 128.003 54.016 128.334 54.016ZM132.828 54V53.84C133.212 53.84 133.521 53.728 133.756 53.504C134.001 53.2693 134.124 52.9547 134.124 52.56V43.44C134.124 43.056 134.001 42.7467 133.756 42.512C133.521 42.2773 133.212 42.16 132.828 42.16V42H134.46C135.004 42 135.42 41.9413 135.708 41.824C135.975 41.7067 136.161 41.5627 136.268 41.392H136.428V52.56C136.428 52.9547 136.545 53.2693 136.78 53.504C137.025 53.728 137.34 53.84 137.724 53.84V54H132.828ZM142.131 54.224C141.256 54.224 140.488 54.048 139.827 53.696C139.176 53.344 138.669 52.848 138.307 52.208C137.944 51.568 137.763 50.8107 137.763 49.936C137.763 49.0613 137.944 48.304 138.307 47.664C138.669 47.024 139.176 46.528 139.827 46.176C140.488 45.824 141.256 45.648 142.131 45.648C143.005 45.648 143.768 45.824 144.419 46.176C145.069 46.528 145.576 47.024 145.939 47.664C146.301 48.304 146.483 49.0613 146.483 49.936C146.483 50.8107 146.301 51.568 145.939 52.208C145.576 52.848 145.069 53.344 144.419 53.696C143.768 54.048 143.005 54.224 142.131 54.224ZM142.115 54.016C142.488 54.016 142.808 53.8293 143.075 53.456C143.341 53.0827 143.549 52.5867 143.699 51.968C143.848 51.3387 143.923 50.656 143.923 49.92C143.923 49.12 143.843 48.416 143.683 47.808C143.533 47.1893 143.32 46.7093 143.043 46.368C142.776 46.016 142.472 45.84 142.131 45.84C141.768 45.84 141.448 46.0267 141.171 46.4C140.904 46.7733 140.696 47.2693 140.547 47.888C140.397 48.5067 140.323 49.184 140.323 49.92C140.323 50.7307 140.403 51.4453 140.563 52.064C140.723 52.6827 140.936 53.1627 141.203 53.504C141.48 53.8453 141.784 54.016 142.115 54.016ZM146.705 54V53.84H146.721C147.105 53.84 147.415 53.7227 147.649 53.488C147.884 53.2533 148.001 52.944 148.001 52.56V47.312C148.001 46.9067 147.916 46.592 147.745 46.368C147.585 46.144 147.239 46.032 146.705 46.032V45.872H148.289C148.727 45.872 149.063 45.8507 149.297 45.808C149.543 45.7653 149.724 45.712 149.841 45.648C149.959 45.5733 150.044 45.4987 150.097 45.424H150.257L150.273 47.504C150.551 46.9493 150.972 46.5013 151.537 46.16C152.103 45.8187 152.7 45.648 153.329 45.648C153.937 45.648 154.444 45.8187 154.849 46.16C155.255 46.5013 155.516 46.96 155.633 47.536C155.932 46.96 156.359 46.5013 156.913 46.16C157.479 45.8187 158.087 45.648 158.737 45.648C159.452 45.648 160.023 45.8827 160.449 46.352C160.887 46.8213 161.105 47.44 161.105 48.208V52.56C161.105 52.944 161.223 53.2533 161.457 53.488C161.692 53.7227 162.001 53.84 162.385 53.84H162.401V54H157.521V53.84H157.537C157.921 53.84 158.231 53.7227 158.465 53.488C158.7 53.2533 158.817 52.944 158.817 52.56V48.048C158.817 47.5147 158.711 47.088 158.497 46.768C158.284 46.448 158.007 46.288 157.665 46.288C157.335 46.288 156.988 46.4373 156.625 46.736C156.263 47.024 155.948 47.4027 155.681 47.872C155.692 47.8933 155.697 47.92 155.697 47.952C155.697 47.984 155.697 48.0107 155.697 48.032V52.56C155.697 52.944 155.815 53.2533 156.049 53.488C156.284 53.7227 156.593 53.84 156.977 53.84H156.993V54H152.113V53.84H152.129C152.513 53.84 152.823 53.7227 153.057 53.488C153.292 53.2533 153.409 52.944 153.409 52.56V48.048C153.409 47.5147 153.303 47.088 153.089 46.768C152.887 46.448 152.615 46.288 152.273 46.288C151.943 46.288 151.596 46.432 151.233 46.72C150.881 46.9973 150.572 47.376 150.305 47.856V52.56C150.305 52.944 150.423 53.2533 150.657 53.488C150.892 53.7227 151.201 53.84 151.585 53.84H151.601V54H146.705ZM163.002 54.224V43.44C163.002 43.056 162.879 42.7467 162.634 42.512C162.399 42.2773 162.09 42.16 161.706 42.16V42H163.338C163.967 42 164.399 41.9413 164.634 41.824C164.868 41.7067 165.039 41.5627 165.146 41.392H165.306V47.216C165.551 46.736 165.892 46.352 166.33 46.064C166.778 45.776 167.268 45.632 167.802 45.632C168.431 45.632 168.991 45.8187 169.482 46.192C169.972 46.5653 170.356 47.072 170.634 47.712C170.922 48.352 171.066 49.0827 171.066 49.904C171.066 50.7573 170.906 51.5093 170.586 52.16C170.276 52.8107 169.839 53.3173 169.274 53.68C168.708 54.0427 168.047 54.224 167.29 54.224C166.02 54.224 165.167 53.696 164.73 52.64L163.162 54.224H163.002ZM166.826 53.952C167.391 53.952 167.818 53.6 168.106 52.896C168.394 52.192 168.538 51.1573 168.538 49.792C168.538 48.5973 168.426 47.712 168.202 47.136C167.978 46.56 167.626 46.272 167.146 46.272C166.719 46.272 166.34 46.4267 166.01 46.736C165.69 47.0453 165.455 47.392 165.306 47.776V51.792C165.348 52.4533 165.503 52.9813 165.77 53.376C166.036 53.76 166.388 53.952 166.826 53.952ZM171.3 54V53.84H171.316C171.7 53.84 172.009 53.7227 172.243 53.488C172.478 53.2533 172.596 52.944 172.596 52.56V47.312C172.596 46.9067 172.51 46.592 172.34 46.368C172.18 46.144 171.833 46.032 171.3 46.032V45.872H172.932C173.476 45.872 173.892 45.8133 174.18 45.696C174.446 45.5787 174.633 45.4347 174.74 45.264H174.9V52.56C174.9 52.944 175.017 53.2533 175.252 53.488C175.486 53.7227 175.796 53.84 176.18 53.84H176.196V54H171.3ZM173.732 44.256C173.348 44.256 173.028 44.1333 172.772 43.888C172.526 43.632 172.404 43.312 172.404 42.928C172.404 42.544 172.526 42.2293 172.772 41.984C173.028 41.728 173.348 41.6 173.732 41.6C174.105 41.6 174.414 41.728 174.66 41.984C174.916 42.24 175.044 42.5547 175.044 42.928C175.044 43.3013 174.916 43.616 174.66 43.872C174.414 44.128 174.105 44.256 173.732 44.256ZM178.594 54.224C177.943 54.224 177.42 54.048 177.026 53.696C176.631 53.344 176.434 52.88 176.434 52.304C176.434 52.0587 176.476 51.8293 176.562 51.616C176.647 51.392 176.807 51.1733 177.042 50.96C177.287 50.7467 177.623 50.528 178.049 50.304C178.476 50.0693 179.042 49.824 179.746 49.568L181.234 49.024V47.824C181.234 47.216 181.138 46.736 180.946 46.384C180.754 46.0213 180.487 45.84 180.146 45.84C179.74 45.8507 179.394 46.1173 179.106 46.64C178.828 47.1627 178.642 47.888 178.546 48.816L176.818 47.824C176.999 47.3867 177.276 47.0027 177.65 46.672C178.023 46.3413 178.45 46.0853 178.93 45.904C179.42 45.7227 179.932 45.632 180.466 45.632C181.372 45.632 182.108 45.888 182.674 46.4C183.25 46.9013 183.538 47.5893 183.538 48.464V52.32C183.538 52.9387 183.746 53.248 184.161 53.248C184.407 53.248 184.647 53.1147 184.882 52.848L185.01 52.96C184.732 53.3333 184.396 53.6373 184.002 53.872C183.607 54.1067 183.223 54.224 182.85 54.224C182.444 54.224 182.092 54.0853 181.794 53.808C181.506 53.5307 181.324 53.1627 181.25 52.704C180.727 53.2373 180.268 53.6267 179.874 53.872C179.49 54.1067 179.063 54.224 178.594 54.224ZM179.794 53.232C180.028 53.232 180.252 53.1733 180.466 53.056C180.69 52.9387 180.94 52.7467 181.218 52.48L181.234 49.232L180.594 49.472C180.05 49.6747 179.634 49.8827 179.346 50.096C179.058 50.2987 178.855 50.528 178.738 50.784C178.631 51.04 178.578 51.3333 178.578 51.664C178.578 52.1227 178.69 52.5013 178.914 52.8C179.148 53.088 179.442 53.232 179.794 53.232Z" fill="black"/>
</svg>
