<svg width="204" height="38" viewBox="0 0 204 38" fill="none" xmlns="http://www.w3.org/2000/svg">
<path d="M15.104 31.448C12.3307 31.448 9.89867 30.936 7.808 29.912C5.71733 28.8667 4.08533 27.4053 2.912 25.528C1.76 23.6507 1.184 21.464 1.184 18.968C1.184 16.4507 1.76 14.264 2.912 12.408C4.08533 10.552 5.73867 9.112 7.872 8.088C10.0053 7.064 12.5333 6.552 15.456 6.552C16.16 6.552 16.7467 6.584 17.216 6.648C17.6853 6.69066 18.1227 6.744 18.528 6.808C18.9333 6.872 19.392 6.936 19.904 7C20.4373 7.04267 21.0987 7.064 21.888 7.064L22.848 13.464H22.528C22.2933 12.2053 21.824 11.096 21.12 10.136C20.4373 9.15467 19.5733 8.38667 18.528 7.832C17.504 7.256 16.3627 6.968 15.104 6.968C13.8667 6.968 12.7253 7.26667 11.68 7.864C10.6347 8.46133 9.73867 9.29333 8.992 10.36C8.24533 11.448 7.65867 12.7493 7.232 14.264C6.82667 15.7573 6.624 17.4 6.624 19.192C6.624 21.56 6.98667 23.6293 7.712 25.4C8.43733 27.1493 9.46133 28.5147 10.784 29.496C12.1067 30.456 13.664 30.936 15.456 30.936C17.504 30.936 19.1893 30.328 20.512 29.112C21.856 27.8747 22.688 26.1573 23.008 23.96H23.328L22.4 30.872C21.3973 30.872 20.512 30.9147 19.744 31C18.976 31.1067 18.2293 31.2027 17.504 31.288C16.8 31.3947 16 31.448 15.104 31.448ZM33.2928 31.448C31.5434 31.448 30.0074 31.096 28.6848 30.392C27.3834 29.688 26.3701 28.696 25.6448 27.416C24.9194 26.136 24.5568 24.6213 24.5568 22.872C24.5568 21.1227 24.9194 19.608 25.6448 18.328C26.3701 17.048 27.3834 16.056 28.6848 15.352C30.0074 14.648 31.5434 14.296 33.2928 14.296C35.0421 14.296 36.5674 14.648 37.8688 15.352C39.1701 16.056 40.1834 17.048 40.9088 18.328C41.6341 19.608 41.9968 21.1227 41.9968 22.872C41.9968 24.6213 41.6341 26.136 40.9088 27.416C40.1834 28.696 39.1701 29.688 37.8688 30.392C36.5674 31.096 35.0421 31.448 33.2928 31.448ZM33.2608 31.032C34.0074 31.032 34.6474 30.6587 35.1808 29.912C35.7141 29.1653 36.1301 28.1733 36.4288 26.936C36.7274 25.6773 36.8768 24.312 36.8768 22.84C36.8768 21.24 36.7168 19.832 36.3968 18.616C36.0981 17.3787 35.6714 16.4187 35.1168 15.736C34.5834 15.032 33.9754 14.68 33.2928 14.68C32.5674 14.68 31.9274 15.0533 31.3728 15.8C30.8394 16.5467 30.4234 17.5387 30.1248 18.776C29.8261 20.0133 29.6768 21.368 29.6768 22.84C29.6768 24.4613 29.8368 25.8907 30.1568 27.128C30.4768 28.3653 30.9034 29.3253 31.4368 30.008C31.9914 30.6907 32.5994 31.032 33.2608 31.032ZM42.25 31V30.68C43.018 30.68 43.6367 30.456 44.106 30.008C44.5967 29.5387 44.842 28.9093 44.842 28.12V9.88C44.842 9.112 44.5967 8.49333 44.106 8.024C43.6367 7.55467 43.018 7.32 42.25 7.32V7H45.514C46.602 7 47.434 6.88266 48.01 6.648C48.5433 6.41333 48.9167 6.12533 49.13 5.784H49.45V28.12C49.45 28.9093 49.6847 29.5387 50.154 30.008C50.6447 30.456 51.274 30.68 52.042 30.68V31H42.25ZM60.8553 31.448C59.1059 31.448 57.5699 31.096 56.2473 30.392C54.9459 29.688 53.9326 28.696 53.2073 27.416C52.4819 26.136 52.1193 24.6213 52.1193 22.872C52.1193 21.1227 52.4819 19.608 53.2073 18.328C53.9326 17.048 54.9459 16.056 56.2473 15.352C57.5699 14.648 59.1059 14.296 60.8553 14.296C62.6046 14.296 64.1299 14.648 65.4313 15.352C66.7326 16.056 67.7459 17.048 68.4713 18.328C69.1966 19.608 69.5593 21.1227 69.5593 22.872C69.5593 24.6213 69.1966 26.136 68.4713 27.416C67.7459 28.696 66.7326 29.688 65.4313 30.392C64.1299 31.096 62.6046 31.448 60.8553 31.448ZM60.8233 31.032C61.5699 31.032 62.2099 30.6587 62.7433 29.912C63.2766 29.1653 63.6926 28.1733 63.9913 26.936C64.2899 25.6773 64.4393 24.312 64.4393 22.84C64.4393 21.24 64.2793 19.832 63.9593 18.616C63.6606 17.3787 63.2339 16.4187 62.6793 15.736C62.1459 15.032 61.5379 14.68 60.8553 14.68C60.1299 14.68 59.4899 15.0533 58.9353 15.8C58.4019 16.5467 57.9859 17.5387 57.6873 18.776C57.3886 20.0133 57.2393 21.368 57.2393 22.84C57.2393 24.4613 57.3993 25.8907 57.7193 27.128C58.0393 28.3653 58.4659 29.3253 58.9993 30.008C59.5539 30.6907 60.1619 31.032 60.8233 31.032ZM70.0045 31V30.68H70.0365C70.8045 30.68 71.4232 30.4453 71.8925 29.976C72.3618 29.5067 72.5965 28.888 72.5965 28.12V17.624C72.5965 16.8133 72.4258 16.184 72.0845 15.736C71.7645 15.288 71.0712 15.064 70.0045 15.064V14.744H73.1725C74.0472 14.744 74.7192 14.7013 75.1885 14.616C75.6792 14.5307 76.0418 14.424 76.2765 14.296C76.5112 14.1467 76.6818 13.9973 76.7885 13.848H77.1085L77.1405 18.008C77.6952 16.8987 78.5378 16.0027 79.6685 15.32C80.7992 14.6373 81.9938 14.296 83.2525 14.296C84.4685 14.296 85.4818 14.6373 86.2925 15.32C87.1032 16.0027 87.6258 16.92 87.8605 18.072C88.4578 16.92 89.3112 16.0027 90.4205 15.32C91.5512 14.6373 92.7672 14.296 94.0685 14.296C95.4978 14.296 96.6392 14.7653 97.4925 15.704C98.3672 16.6427 98.8045 17.88 98.8045 19.416V28.12C98.8045 28.888 99.0392 29.5067 99.5085 29.976C99.9778 30.4453 100.597 30.68 101.365 30.68H101.397V31H91.6365V30.68H91.6685C92.4365 30.68 93.0552 30.4453 93.5245 29.976C93.9938 29.5067 94.2285 28.888 94.2285 28.12V19.096C94.2285 18.0293 94.0152 17.176 93.5885 16.536C93.1618 15.896 92.6072 15.576 91.9245 15.576C91.2632 15.576 90.5698 15.8747 89.8445 16.472C89.1192 17.048 88.4898 17.8053 87.9565 18.744C87.9778 18.7867 87.9885 18.84 87.9885 18.904C87.9885 18.968 87.9885 19.0213 87.9885 19.064V28.12C87.9885 28.888 88.2232 29.5067 88.6925 29.976C89.1618 30.4453 89.7805 30.68 90.5485 30.68H90.5805V31H80.8205V30.68H80.8525C81.6205 30.68 82.2392 30.4453 82.7085 29.976C83.1778 29.5067 83.4125 28.888 83.4125 28.12V19.096C83.4125 18.0293 83.1992 17.176 82.7725 16.536C82.3672 15.896 81.8232 15.576 81.1405 15.576C80.4792 15.576 79.7858 15.864 79.0605 16.44C78.3565 16.9947 77.7378 17.752 77.2045 18.712V28.12C77.2045 28.888 77.4392 29.5067 77.9085 29.976C78.3778 30.4453 78.9965 30.68 79.7645 30.68H79.7965V31H70.0045ZM102.597 31.448V9.88C102.597 9.112 102.352 8.49333 101.861 8.024C101.392 7.55467 100.773 7.32 100.005 7.32V7H103.269C104.528 7 105.392 6.88266 105.861 6.648C106.33 6.41333 106.672 6.12533 106.885 5.784H107.205V17.432C107.696 16.472 108.378 15.704 109.253 15.128C110.149 14.552 111.13 14.264 112.197 14.264C113.456 14.264 114.576 14.6373 115.557 15.384C116.538 16.1307 117.306 17.144 117.861 18.424C118.437 19.704 118.725 21.1653 118.725 22.808C118.725 24.5147 118.405 26.0187 117.765 27.32C117.146 28.6213 116.272 29.6347 115.141 30.36C114.01 31.0853 112.688 31.448 111.173 31.448C108.634 31.448 106.928 30.392 106.053 28.28L102.917 31.448H102.597ZM110.245 30.904C111.376 30.904 112.229 30.2 112.805 28.792C113.381 27.384 113.669 25.3147 113.669 22.584C113.669 20.1947 113.445 18.424 112.997 17.272C112.549 16.12 111.845 15.544 110.885 15.544C110.032 15.544 109.274 15.8533 108.613 16.472C107.973 17.0907 107.504 17.784 107.205 18.552V26.584C107.29 27.9067 107.6 28.9627 108.133 29.752C108.666 30.52 109.37 30.904 110.245 30.904ZM119.193 31V30.68H119.225C119.993 30.68 120.611 30.4453 121.081 29.976C121.55 29.5067 121.785 28.888 121.785 28.12V17.624C121.785 16.8133 121.614 16.184 121.273 15.736C120.953 15.288 120.259 15.064 119.193 15.064V14.744H122.457C123.545 14.744 124.377 14.6267 124.953 14.392C125.486 14.1573 125.859 13.8693 126.073 13.528H126.393V28.12C126.393 28.888 126.627 29.5067 127.097 29.976C127.566 30.4453 128.185 30.68 128.953 30.68H128.985V31H119.193ZM124.057 11.512C123.289 11.512 122.649 11.2667 122.137 10.776C121.646 10.264 121.401 9.624 121.401 8.856C121.401 8.088 121.646 7.45867 122.137 6.968C122.649 6.456 123.289 6.2 124.057 6.2C124.803 6.2 125.422 6.456 125.913 6.968C126.425 7.48 126.681 8.10933 126.681 8.856C126.681 9.60267 126.425 10.232 125.913 10.744C125.422 11.256 124.803 11.512 124.057 11.512ZM133.781 31.448C132.479 31.448 131.434 31.096 130.645 30.392C129.855 29.688 129.461 28.76 129.461 27.608C129.461 27.1173 129.546 26.6587 129.717 26.232C129.887 25.784 130.207 25.3467 130.677 24.92C131.167 24.4933 131.839 24.056 132.693 23.608C133.546 23.1387 134.677 22.648 136.085 22.136L139.061 21.048V18.648C139.061 17.432 138.869 16.472 138.485 15.768C138.101 15.0427 137.567 14.68 136.885 14.68C136.074 14.7013 135.381 15.2347 134.805 16.28C134.25 17.3253 133.877 18.776 133.685 20.632L130.229 18.648C130.591 17.7733 131.146 17.0053 131.893 16.344C132.639 15.6827 133.493 15.1707 134.453 14.808C135.434 14.4453 136.458 14.264 137.525 14.264C139.338 14.264 140.81 14.776 141.941 15.8C143.093 16.8027 143.669 18.1787 143.669 19.928V27.64C143.669 28.8773 144.085 29.496 144.917 29.496C145.407 29.496 145.887 29.2293 146.357 28.696L146.613 28.92C146.058 29.6667 145.386 30.2747 144.597 30.744C143.807 31.2133 143.039 31.448 142.293 31.448C141.482 31.448 140.778 31.1707 140.181 30.616C139.605 30.0613 139.242 29.3253 139.093 28.408C138.047 29.4747 137.13 30.2533 136.341 30.744C135.573 31.2133 134.719 31.448 133.781 31.448ZM136.181 29.464C136.65 29.464 137.098 29.3467 137.525 29.112C137.973 28.8773 138.474 28.4933 139.029 27.96L139.061 21.464L137.781 21.944C136.693 22.3493 135.861 22.7653 135.285 23.192C134.709 23.5973 134.303 24.056 134.069 24.568C133.855 25.08 133.749 25.6667 133.749 26.328C133.749 27.2453 133.973 28.0027 134.421 28.6C134.89 29.176 135.477 29.464 136.181 29.464ZM145.973 31V30.68H146.005C146.773 30.68 147.392 30.4453 147.861 29.976C148.331 29.5067 148.565 28.888 148.565 28.12V17.624C148.565 16.8133 148.395 16.184 148.053 15.736C147.733 15.288 147.04 15.064 145.973 15.064V14.744H149.141C150.229 14.744 151.061 14.6267 151.637 14.392C152.171 14.1573 152.544 13.8693 152.757 13.528H153.077L153.109 18.008C153.664 16.8987 154.507 16.0027 155.637 15.32C156.768 14.6373 157.963 14.296 159.221 14.296C160.651 14.296 161.792 14.7653 162.645 15.704C163.52 16.6427 163.957 17.88 163.957 19.416V28.12C163.957 28.888 164.192 29.5067 164.661 29.976C165.131 30.4453 165.749 30.68 166.517 30.68H166.549V31H156.789V30.68H156.821C157.589 30.68 158.208 30.4453 158.677 29.976C159.147 29.5067 159.381 28.888 159.381 28.12V19.096C159.381 18.0293 159.168 17.176 158.741 16.536C158.336 15.896 157.792 15.576 157.109 15.576C156.448 15.576 155.755 15.864 155.029 16.44C154.325 16.9947 153.707 17.752 153.173 18.712V28.12C153.173 28.888 153.408 29.5067 153.877 29.976C154.347 30.4453 154.965 30.68 155.733 30.68H155.765V31H145.973ZM178.145 32.216L178.113 27.672C177.601 28.7813 176.833 29.6987 175.809 30.424C174.785 31.128 173.686 31.48 172.513 31.48C171.361 31.48 170.326 31.1173 169.409 30.392C168.491 29.6667 167.766 28.6747 167.233 27.416C166.699 26.136 166.433 24.696 166.433 23.096C166.433 21.304 166.763 19.7467 167.424 18.424C168.107 17.1013 169.046 16.088 170.241 15.384C171.435 14.6587 172.811 14.296 174.369 14.296C175.243 14.296 175.958 14.4347 176.513 14.712C177.067 14.968 177.569 15.416 178.017 16.056V9.88C178.017 9.112 177.771 8.49333 177.281 8.024C176.811 7.55467 176.193 7.32 175.425 7.32V7H178.689C179.755 7 180.566 6.89333 181.121 6.68C181.675 6.46667 182.07 6.168 182.305 5.784H182.625V28.12C182.625 28.888 182.859 29.5067 183.329 29.976C183.798 30.4453 184.427 30.68 185.217 30.68V31H181.953C181.014 31 180.267 31.096 179.713 31.288C179.179 31.48 178.763 31.7893 178.465 32.216H178.145ZM174.273 30.2C174.763 30.2 175.254 30.0507 175.745 29.752C176.257 29.432 176.715 29.016 177.121 28.504C177.526 27.992 177.825 27.448 178.017 26.872V19.064C177.91 17.784 177.59 16.76 177.057 15.992C176.545 15.224 175.873 14.84 175.041 14.84C173.931 14.84 173.067 15.544 172.449 16.952C171.851 18.36 171.553 20.44 171.553 23.192C171.553 27.864 172.459 30.2 174.273 30.2ZM194.043 31.448C192.293 31.448 190.757 31.096 189.435 30.392C188.133 29.688 187.12 28.696 186.395 27.416C185.669 26.136 185.307 24.6213 185.307 22.872C185.307 21.1227 185.669 19.608 186.395 18.328C187.12 17.048 188.133 16.056 189.435 15.352C190.757 14.648 192.293 14.296 194.043 14.296C195.792 14.296 197.317 14.648 198.619 15.352C199.92 16.056 200.933 17.048 201.659 18.328C202.384 19.608 202.747 21.1227 202.747 22.872C202.747 24.6213 202.384 26.136 201.659 27.416C200.933 28.696 199.92 29.688 198.619 30.392C197.317 31.096 195.792 31.448 194.043 31.448ZM194.011 31.032C194.757 31.032 195.397 30.6587 195.931 29.912C196.464 29.1653 196.88 28.1733 197.179 26.936C197.477 25.6773 197.627 24.312 197.627 22.84C197.627 21.24 197.467 19.832 197.147 18.616C196.848 17.3787 196.421 16.4187 195.867 15.736C195.333 15.032 194.725 14.68 194.043 14.68C193.317 14.68 192.677 15.0533 192.123 15.8C191.589 16.5467 191.173 17.5387 190.875 18.776C190.576 20.0133 190.427 21.368 190.427 22.84C190.427 24.4613 190.587 25.8907 190.907 27.128C191.227 28.3653 191.653 29.3253 192.187 30.008C192.741 30.6907 193.349 31.032 194.011 31.032Z" fill="black"/>
</svg>
