<svg width="32" height="32" viewBox="0 0 32 32" fill="none" xmlns="http://www.w3.org/2000/svg">
<path d="M30.25 30.25L20.5 20.5M1 12.375C1 13.8688 1.29422 15.3479 1.86587 16.728C2.43752 18.1081 3.27539 19.3621 4.33166 20.4183C5.38793 21.4746 6.6419 22.3125 8.02198 22.8841C9.40205 23.4558 10.8812 23.75 12.375 23.75C13.8688 23.75 15.3479 23.4558 16.728 22.8841C18.1081 22.3125 19.3621 21.4746 20.4183 20.4183C21.4746 19.3621 22.3125 18.1081 22.8841 16.728C23.4558 15.3479 23.75 13.8688 23.75 12.375C23.75 10.8812 23.4558 9.40205 22.8841 8.02198C22.3125 6.6419 21.4746 5.38793 20.4183 4.33166C19.3621 3.27539 18.1081 2.43752 16.728 1.86587C15.3479 1.29422 13.8688 1 12.375 1C10.8812 1 9.40205 1.29422 8.02198 1.86587C6.6419 2.43752 5.38793 3.27539 4.33166 4.33166C3.27539 5.38793 2.43752 6.6419 1.86587 8.02198C1.29422 9.40205 1 10.8812 1 12.375Z" stroke="black" stroke-width="2" stroke-linecap="round" stroke-linejoin="round"/>
</svg>
